<?xml version="1.0" encoding="iso-8859-1"?>
<!-- Uploaded to: SVG Repo, www.svgrepo.com, Generator: SVG Repo Mixer Tools -->
<svg version="1.1" id="Layer_1" xmlns="http://www.w3.org/2000/svg" xmlns:xlink="http://www.w3.org/1999/xlink" 
	 viewBox="0 0 512 512" xml:space="preserve">
<g>
	<g>
		<path d="M131.579,128.616H95.943c-5.523,0-10-4.477-10-10s4.477-10,10-10h35.636c5.523,0,10,4.477,10,10
			S137.102,128.616,131.579,128.616z"/>
	</g>
	<g>
		<path d="M95.943,313.357c-5.523,0-10-4.477-10-10v-22.506c0-5.523,4.477-10,10-10s10,4.477,10,10v22.506
			C105.943,308.88,101.466,313.357,95.943,313.357z"/>
	</g>
	<g>
		<polygon style="fill:#50A5DC;" points="66.26,241.277 149.397,241.288 10,101.891 10.308,295.855 		"/>
		<path d="M10.306,305.856c-1.307,0-2.624-0.256-3.875-0.783c-3.705-1.558-6.117-5.183-6.123-9.202L0,101.907
			c-0.006-4.048,2.428-7.7,6.166-9.252s8.042-0.697,10.905,2.165l139.397,139.397c2.86,2.86,3.715,7.162,2.167,10.899
			c-1.548,3.736-5.194,6.172-9.239,6.172h-0.001l-79.067-0.01L17.29,303.014C15.385,304.872,12.866,305.856,10.306,305.856z
			 M20.039,126.072l0.231,146.096l39.007-38.049c1.868-1.822,4.374-2.842,6.982-2.842h0.001l58.991,0.008L20.039,126.072z"/>
	</g>
	<path d="M44.366,177.074c-5.523,0-10,4.477-10,10v30.629c0,5.523,4.477,10,10,10s10-4.477,10-10v-30.629
		C54.366,181.551,49.889,177.074,44.366,177.074z"/>
	<rect x="458.862" y="97.047" style="fill:#FCE600;" width="43.138" height="43.138"/>
	<rect x="458.862" y="371.815" style="fill:#FCE600;" width="43.138" height="43.138"/>
	<rect x="458.862" y="234.9" style="fill:#FCE600;" width="43.138" height="43.138"/>
	<rect x="75.313" y="371.815" style="fill:#FCE600;" width="43.138" height="43.138"/>
	<rect x="267.556" y="97.047" style="fill:#FCE600;" width="43.138" height="43.138"/>
	<rect x="267.556" y="371.815" style="fill:#FCE600;" width="43.138" height="43.138"/>
	<g>
		<path d="M502,150.185c5.523,0,10-4.477,10-10V97.047c0-5.523-4.477-10-10-10h-43.138c-5.523,0-10,4.477-10,10v11.569H320.694
			V97.047c0-5.523-4.477-10-10-10h-43.138c-5.523,0-10,4.477-10,10v11.569h-70.648c-5.523,0-10,4.477-10,10s4.477,10,10,10h70.648
			v11.569c0,5.523,4.477,10,10,10h43.138c5.523,0,10-4.477,10-10v-11.569h128.168v11.569c0,5.523,4.477,10,10,10h12.507V224.9
			h-12.507c-5.523,0-10,4.477-10,10v43.138c0,5.523,4.477,10,10,10h12.507v73.777h-12.507c-5.523,0-10,4.477-10,10v12.507H320.694
			v-12.507c0-5.523-4.477-10-10-10h-43.138c-5.523,0-10,4.477-10,10v12.507H128.45v-12.507c0-5.523-4.477-10-10-10h-12.507v-24.697
			c0-5.523-4.477-10-10-10s-10,4.477-10,10v24.697h-10.63c-5.523,0-10,4.477-10,10v43.138c0,5.523,4.477,10,10,10h43.138
			c5.523,0,10-4.477,10-10v-10.631h129.106v10.631c0,5.523,4.477,10,10,10h43.138c5.523,0,10-4.477,10-10v-10.631h128.168v10.631
			c0,5.523,4.477,10,10,10H502c5.523,0,10-4.477,10-10v-43.138c0-5.523-4.477-10-10-10h-10.631v-73.777H502c5.523,0,10-4.477,10-10
			V234.9c0-5.523-4.477-10-10-10h-10.631v-74.715H502z M300.694,130.185h-23.138v-1.569v-20v-1.569h23.138v1.569v20V130.185z
			 M108.45,404.953H85.313v-23.138h0.631h20h2.507v2.507v20v0.631H108.45z M300.694,404.953h-23.138v-0.631v-20v-2.507h23.138v2.507
			v20V404.953z M492,381.815v23.138h-23.138v-0.631v-20v-2.507h2.507h20H492z M492,244.9v23.138h-0.631h-20h-2.507V244.9h2.507h20
			H492z M471.369,130.185h-2.507v-1.569v-20v-1.569H492v23.138h-0.631H471.369z"/>
	</g>
</g>
</svg>